HIERARCHY
ROOT Root
{
	OFFSET	0.000000  -0.008412  -0.956822
	CHANNELS 6 Xposition Yposition Zposition Zrotation Xrotation Yrotation
	JOINT __pelvis
	{
		OFFSET	0.000000  0.000021  0.534455
		CHANNELS 3 Zrotation Xrotation Yrotation
		JOINT pelvis
		{
			OFFSET	0.000000  9.887413  -0.035501
			CHANNELS 3 Zrotation Xrotation Yrotation
			JOINT spine_01
			{
				OFFSET	-0.000000  0.788603  -0.481689
				CHANNELS 3 Zrotation Xrotation Yrotation
				JOINT spine_02
				{
					OFFSET	-0.000000  0.716185  0.234139
					CHANNELS 3 Zrotation Xrotation Yrotation
					JOINT spine_03
					{
						OFFSET	0.000000  1.000690  0.093765
						CHANNELS 3 Zrotation Xrotation Yrotation
						JOINT __clavicle_l
						{
							OFFSET	0.000000  1.695483  -0.086183
							CHANNELS 3 Zrotation Xrotation Yrotation
							JOINT clavicle_l
							{
								OFFSET	0.264050  0.871368  0.206124
								CHANNELS 3 Zrotation Xrotation Yrotation
								JOINT upperarm_l
								{
									OFFSET	1.425917  -0.278956  -0.430511
									CHANNELS 3 Zrotation Xrotation Yrotation
									JOINT lowerarm_l
									{
										OFFSET	0.690645  -2.690394  0.173489
										CHANNELS 3 Zrotation Xrotation Yrotation
										JOINT hand_l
										{
											OFFSET	0.690877  -2.233924  0.772428
											CHANNELS 3 Zrotation Xrotation Yrotation
											JOINT __index_01_l
											{
												OFFSET	0.044910  -0.307734  0.111676
												CHANNELS 3 Zrotation Xrotation Yrotation
												JOINT index_01_l
												{
													OFFSET	0.112667  -0.638935  0.407981
													CHANNELS 3 Zrotation Xrotation Yrotation
													JOINT index_02_l
													{
														OFFSET	-0.018943  -0.244695  0.098704
														CHANNELS 3 Zrotation Xrotation Yrotation
														JOINT index_03_l
														{
															OFFSET	-0.093031  -0.209181  0.057495
															CHANNELS 3 Zrotation Xrotation Yrotation
																End Site
																{
																	OFFSET	-0.135492	-0.232881	0.0639159
																}
														}
													}
												}
											}
											JOINT __middle_01_l
											{
												OFFSET	0.044910  -0.307734  0.111676
												CHANNELS 3 Zrotation Xrotation Yrotation
												JOINT middle_01_l
												{
													OFFSET	0.167317  -0.681819  0.146793
													CHANNELS 3 Zrotation Xrotation Yrotation
													JOINT middle_02_l
													{
														OFFSET	-0.107582  -0.329232  0.020489
														CHANNELS 3 Zrotation Xrotation Yrotation
														JOINT middle_03_l
														{
															OFFSET	-0.227598  -0.168034  -0.005745
															CHANNELS 3 Zrotation Xrotation Yrotation
																End Site
																{
																	OFFSET	-0.25831	-0.0928129	-0.0324273
																}
														}
													}
												}
											}
											JOINT __pinky_01_l
											{
												OFFSET	0.044910  -0.307734  0.111676
												CHANNELS 3 Zrotation Xrotation Yrotation
												JOINT pinky_01_l
												{
													OFFSET	0.120549  -0.639394  -0.265472
													CHANNELS 3 Zrotation Xrotation Yrotation
													JOINT pinky_02_l
													{
														OFFSET	-0.138328  -0.167933  -0.027454
														CHANNELS 3 Zrotation Xrotation Yrotation
														JOINT pinky_03_l
														{
															OFFSET	-0.150259  -0.054543  0.001453
															CHANNELS 3 Zrotation Xrotation Yrotation
																End Site
																{
																	OFFSET	-0.191458	0.0645264	0.0149574
																}
														}
													}
												}
											}
											JOINT __ring_01_l
											{
												OFFSET	0.044910  -0.307734  0.111676
												CHANNELS 3 Zrotation Xrotation Yrotation
												JOINT ring_01_l
												{
													OFFSET	0.171003  -0.674372  -0.058236
													CHANNELS 3 Zrotation Xrotation Yrotation
													JOINT ring_02_l
													{
														OFFSET	-0.113003  -0.281690  -0.032152
														CHANNELS 3 Zrotation Xrotation Yrotation
														JOINT ring_03_l
														{
															OFFSET	-0.227511  -0.108530  -0.022587
															CHANNELS 3 Zrotation Xrotation Yrotation
																End Site
																{
																	OFFSET	-0.26286	0.0605507	-0.0465905
																}
														}
													}
												}
											}
											JOINT __thumb_01_l
											{
												OFFSET	0.044910  -0.307734  0.111676
												CHANNELS 3 Zrotation Xrotation Yrotation
												JOINT thumb_01_l
												{
													OFFSET	-0.018180  -0.000744  0.222746
													CHANNELS 3 Zrotation Xrotation Yrotation
													JOINT thumb_02_l
													{
														OFFSET	-0.182987  -0.184726  0.179424
														CHANNELS 3 Zrotation Xrotation Yrotation
														JOINT thumb_03_l
														{
															OFFSET	-0.057921  -0.329955  0.158243
															CHANNELS 3 Zrotation Xrotation Yrotation
																End Site
																{
																	OFFSET	-0.00653195	-0.280466	0.0603746
																}
														}
													}
												}
											}
										}
									}
								}
							}
						}
						JOINT __clavicle_r
						{
							OFFSET	0.000000  1.695483  -0.086183
							CHANNELS 3 Zrotation Xrotation Yrotation
							JOINT clavicle_r
							{
								OFFSET	-0.264050  0.871368  0.206124
								CHANNELS 3 Zrotation Xrotation Yrotation
								JOINT upperarm_r
								{
									OFFSET	-1.416691  -0.294948  -0.423205
									CHANNELS 3 Zrotation Xrotation Yrotation
									JOINT lowerarm_r
									{
										OFFSET	-0.563879  -2.742005  0.224881
										CHANNELS 3 Zrotation Xrotation Yrotation
										JOINT hand_r
										{
											OFFSET	-0.561278  -2.276309  0.753570
											CHANNELS 3 Zrotation Xrotation Yrotation
											JOINT __index_01_r
											{
												OFFSET	-0.011945  -0.314766  0.099596
												CHANNELS 3 Zrotation Xrotation Yrotation
												JOINT index_01_r
												{
													OFFSET	-0.065346  -0.662795  0.380531
													CHANNELS 3 Zrotation Xrotation Yrotation
													JOINT index_02_r
													{
														OFFSET	0.031459  -0.260410  0.034260
														CHANNELS 3 Zrotation Xrotation Yrotation
														JOINT index_03_r
														{
															OFFSET	0.078522  -0.221583  0.021272
															CHANNELS 3 Zrotation Xrotation Yrotation
																End Site
																{
																	OFFSET	0.177384	-0.212419	0.0095157
																}
														}
													}
												}
											}
											JOINT __middle_01_r
											{
												OFFSET	-0.011945  -0.314766  0.099596
												CHANNELS 3 Zrotation Xrotation Yrotation
												JOINT middle_01_r
												{
													OFFSET	-0.080722  -0.703732  0.112861
													CHANNELS 3 Zrotation Xrotation Yrotation
													JOINT middle_02_r
													{
														OFFSET	0.141574  -0.315422  0.029217
														CHANNELS 3 Zrotation Xrotation Yrotation
														JOINT middle_03_r
														{
															OFFSET	0.142498  -0.240735  0.042553
															CHANNELS 3 Zrotation Xrotation Yrotation
																End Site
																{
																	OFFSET	0.167368	-0.217466	0.0329599
																}
														}
													}
												}
											}
											JOINT __pinky_01_r
											{
												OFFSET	-0.011945  -0.314766  0.099596
												CHANNELS 3 Zrotation Xrotation Yrotation
												JOINT pinky_01_r
												{
													OFFSET	0.009259  -0.639731  -0.290596
													CHANNELS 3 Zrotation Xrotation Yrotation
													JOINT pinky_02_r
													{
														OFFSET	0.127799  -0.177156  0.019313
														CHANNELS 3 Zrotation Xrotation Yrotation
														JOINT pinky_03_r
														{
															OFFSET	0.127618  -0.091541  0.029813
															CHANNELS 3 Zrotation Xrotation Yrotation
																End Site
																{
																	OFFSET	0.16205	-0.117181	0.0324257
																}
														}
													}
												}
											}
											JOINT __ring_01_r
											{
												OFFSET	-0.011945  -0.314766  0.099596
												CHANNELS 3 Zrotation Xrotation Yrotation
												JOINT ring_01_r
												{
													OFFSET	-0.060361  -0.689487  -0.091543
													CHANNELS 3 Zrotation Xrotation Yrotation
													JOINT ring_02_r
													{
														OFFSET	0.157147  -0.261415  0.010923
														CHANNELS 3 Zrotation Xrotation Yrotation
														JOINT ring_03_r
														{
															OFFSET	0.158612  -0.194820  0.030620
															CHANNELS 3 Zrotation Xrotation Yrotation
																End Site
																{
																	OFFSET	0.192966	-0.193319	0.0180208
																}
														}
													}
												}
											}
											JOINT __thumb_01_r
											{
												OFFSET	-0.011945  -0.314766  0.099596
												CHANNELS 3 Zrotation Xrotation Yrotation
												JOINT thumb_01_r
												{
													OFFSET	-0.009256  -0.006113  0.223876
													CHANNELS 3 Zrotation Xrotation Yrotation
													JOINT thumb_02_r
													{
														OFFSET	0.183796  -0.087752  0.242015
														CHANNELS 3 Zrotation Xrotation Yrotation
														JOINT thumb_03_r
														{
															OFFSET	0.075996  -0.262463  0.250207
															CHANNELS 3 Zrotation Xrotation Yrotation
																End Site
																{
																	OFFSET	0.0757055	-0.244108	0.130495
																}
														}
													}
												}
											}
										}
									}
								}
							}
						}
						JOINT __neck_01
						{
							OFFSET	0.000000  1.695483  -0.086183
							CHANNELS 3 Zrotation Xrotation Yrotation
							JOINT neck_01
							{
								OFFSET	-0.000000  1.615338  -0.113565
								CHANNELS 3 Zrotation Xrotation Yrotation
								JOINT head
								{
									OFFSET	0.000000  1.190769  0.446735
									CHANNELS 3 Zrotation Xrotation Yrotation
										End Site
										{
											OFFSET	-1.39698e-09	1.51521	-0.0329454
										}
								}
							}
						}
					}
				}
			}
			JOINT __thigh_l
			{
				OFFSET	-0.000000  0.788603  -0.481689
				CHANNELS 3 Zrotation Xrotation Yrotation
				JOINT thigh_l
				{
					OFFSET	1.041142  -0.918956  0.422062
					CHANNELS 3 Zrotation Xrotation Yrotation
					JOINT calf_l
					{
						OFFSET	0.453343  -4.287359  0.335910
						CHANNELS 3 Zrotation Xrotation Yrotation
						JOINT foot_l
						{
							OFFSET	0.325718  -4.697322  -0.281126
							CHANNELS 3 Zrotation Xrotation Yrotation
							JOINT ball_l
							{
								OFFSET	0.069656  -0.663271  1.259262
								CHANNELS 3 Zrotation Xrotation Yrotation
									End Site
									{
										OFFSET	-0.0512127	0.0174923	0.712095
									}
							}
						}
					}
				}
			}
			JOINT __thigh_r
			{
				OFFSET	-0.000000  0.788603  -0.481689
				CHANNELS 3 Zrotation Xrotation Yrotation
				JOINT thigh_r
				{
					OFFSET	-1.041142  -0.918956  0.422062
					CHANNELS 3 Zrotation Xrotation Yrotation
					JOINT calf_r
					{
						OFFSET	-0.419685  -4.400413  0.335909
						CHANNELS 3 Zrotation Xrotation Yrotation
						JOINT foot_r
						{
							OFFSET	-0.359375  -4.584271  -0.281128
							CHANNELS 3 Zrotation Xrotation Yrotation
							JOINT ball_r
							{
								OFFSET	-0.069656  -0.663272  1.259261
								CHANNELS 3 Zrotation Xrotation Yrotation
									End Site
									{
										OFFSET	0.0512124	0.0174923	0.712095
									}
							}
						}
					}
				}
			}
		}
	}
}
MOTION
Frames: 1
Frame Time: 1.000000
6.67165e-17 -0.00840259 -0.689594 -1.05436e-15 -3.43266e-09 2.37505e-15 -0.0 0.0 -0.0 -3.22208e-15 -7.03426e-07 -2.69195e-16 1.38027e-06 -4.03586e-06 -8.96329e-07 2.17625e-06 -4.96271e-06 -1.93885e-06 2.72006e-06 -3.06612e-07 -1.17615e-06 -0.0 0.0 -0.0 2.58882e-06 -3.05472e-07 -1.072e-06 -4.0085e-07 -3.06301e-07 -1.17872e-06 1.49534 -6.28915 -15.3852 6.71057e-06 -4.35461e-07 -1.04102e-06 -0.0 0.0 -0.0 -3.11658 -6.73085 15.2808 1.27339e-05 2.74415e-05 -4.7105e-06 -8.3434e-06 -1.45572e-06 -3.69421e-06 -0.0 0.0 -0.0 4.42938 -7.26158 -14.9771 7.52654e-06 2.72374e-05 7.39626e-07 1.62957e-05 3.31838e-05 -3.35838e-07 -0.0 0.0 -0.0 -1.76291e-12 1.24078 -1.73981e-12 -1.47895e-05 2.4856e-05 2.79839e-06 4.80316e-06 2.75725e-05 -2.8189e-06 -0.0 0.0 -0.0 6.60632e-06 -4.66421e-06 -1.65666e-06 -27.5572 -12.4773 11.1371 5.81526e-06 2.24949e-05 -7.29372e-06 -0.0 0.0 -0.0 1.23474e-05 -8.13313e-06 -3.93141e-06 30.4623 -13.1086 -10.2897 9.29547e-06 2.59369e-05 1.28868e-06 -0.0 0.0 -0.0 3.56804e-06 2.1102e-05 6.05589e-07 3.58613e-06 2.04604e-05 7.12311e-07 -2.18765e-12 1.24078 -3.12776e-13 8.65775e-06 2.7974e-05 -2.04048e-06 -0.0 0.0 -0.0 7.42861e-06 -1.42178e-07 -4.44369e-06 -5.67148e-12 1.24078 -1.67261e-12 -7.81055e-06 2.39757e-05 5.07718e-06 -0.0 0.0 -0.0 1.06469e-05 -5.46954e-06 -5.42183e-07 7.62521e-06 -2.55633e-06 -2.62158e-06 -27.5572 -12.4773 11.1371 -0.0 0.0 -0.0 1.22618e-06 2.08868e-06 -4.25902e-06 1.05971e-05 -9.03129e-06 -2.63231e-06 30.4623 -13.1086 -10.2897 -0.0 0.0 -0.0 1.28276e-05 3.31778e-05 -2.52503e-06 1.44292e-05 1.45537e-06 -5.57592e-06 -6.81004e-12 1.24078 -2.33124e-12 -0.0 0.0 -0.0 6.00845e-06 2.93697e-05 -1.1838e-06 1.57834e-05 -6.92539e-06 -4.86396e-06 8.34835e-06 -8.92611e-06 -2.78978e-06 -0.0 0.0 -0.0 2.62229e-06 -1.56463 -1.03958e-05 -1.49535 -6.28915 15.3852 -0.0 0.0 -0.0 -2.9798e-06 8.84225e-06 -7.50723e-07 -2.16657e-06 1.39931e-05 2.75707e-06 2.42179e-06 2.2445e-05 -3.96191e-07 5.20507e-06 -1.56463 1.03958e-05 -0.0 0.0 -0.0 -1.70953e-15 -2.493e-06 2.47624e-15 -8.13935e-16 -1.58942e-06 -5.70604e-17 1.40973e-15 -1.56462 3.4612e-15 1.50103e-15 -2.7228 7.76905e-15
